<svg width="13" height="11" viewBox="0 0 13 11" fill="none" xmlns="http://www.w3.org/2000/svg">
<path d="M2.33325 0.333496H10.9999C11.5304 0.333496 12.0391 0.54421 12.4141 0.919283C12.7892 1.29436 12.9999 1.80306 12.9999 2.3335V8.3335C12.9999 8.86393 12.7892 9.37264 12.4141 9.74771C12.0391 10.1228 11.5304 10.3335 10.9999 10.3335H2.33325C1.80282 10.3335 1.29411 10.1228 0.919038 9.74771C0.543966 9.37264 0.333252 8.86393 0.333252 8.3335V2.3335C0.333252 1.80306 0.543966 1.29436 0.919038 0.919283C1.29411 0.54421 1.80282 0.333496 2.33325 0.333496ZM2.33325 1.00016C2.00792 1.00016 1.70925 1.11683 1.47792 1.31083L6.66659 4.68016L11.8553 1.31083C11.6156 1.10977 11.3127 0.999753 10.9999 1.00016H2.33325ZM6.66659 5.47483L1.08925 1.8535C1.03011 2.00661 0.999822 2.16935 0.999919 2.3335V8.3335C0.999919 8.68712 1.14039 9.02626 1.39044 9.27631C1.64049 9.52635 1.97963 9.66683 2.33325 9.66683H10.9999C11.3535 9.66683 11.6927 9.52635 11.9427 9.27631C12.1928 9.02626 12.3333 8.68712 12.3333 8.3335V2.3335C12.3333 2.16416 12.3019 2.00216 12.2439 1.8535L6.66659 5.47416V5.47483Z" fill="#C8C8C8"/>
</svg>
