<svg width="137" height="44" viewBox="0 0 137 44" fill="none" xmlns="http://www.w3.org/2000/svg">
<path d="M0.576 1.064H6.602V10.31L6.234 14.404H6.602C7.246 13.3307 8.166 12.4567 9.362 11.782C10.5887 11.0767 11.9533 10.724 13.456 10.724C16.3693 10.724 18.516 11.5827 19.896 13.3C21.3067 15.0173 22.012 17.3633 22.012 20.338V34H15.986V21.074C15.986 19.51 15.618 18.3293 14.882 17.532C14.146 16.704 13.1187 16.29 11.8 16.29C10.972 16.29 10.236 16.474 9.592 16.842C8.948 17.1793 8.396 17.6547 7.936 18.268C7.50667 18.8813 7.16933 19.602 6.924 20.43C6.70933 21.2273 6.602 22.086 6.602 23.006V34H0.576V1.064ZM32.7048 32.896L23.2288 11.46H30.0828L35.7868 25.122H36.1088L41.5828 11.46H48.2988L34.1768 43.936H27.6908L32.7048 32.896ZM52.4726 23.098C51.3686 23.098 50.418 22.7147 49.6206 21.948C48.854 21.1507 48.4706 20.2 48.4706 19.096C48.4706 17.992 48.854 17.0567 49.6206 16.29C50.418 15.4927 51.3686 15.094 52.4726 15.094C53.5766 15.094 54.512 15.4927 55.2786 16.29C56.0453 17.0567 56.4286 17.992 56.4286 19.096C56.4286 20.2 56.0453 21.1507 55.2786 21.948C54.512 22.7147 53.5766 23.098 52.4726 23.098ZM58.9996 1.064H65.0256V10.954L64.6576 14.174H65.0256C65.5776 13.2233 66.4363 12.4107 67.6016 11.736C68.7669 11.0613 70.2083 10.724 71.9256 10.724C73.3669 10.724 74.7316 11.0307 76.0196 11.644C77.3383 12.2267 78.4883 13.0547 79.4696 14.128C80.4816 15.1707 81.2789 16.428 81.8616 17.9C82.4443 19.372 82.7356 20.982 82.7356 22.73C82.7356 24.478 82.4443 26.088 81.8616 27.56C81.2789 29.032 80.4816 30.3047 79.4696 31.378C78.4883 32.4207 77.3383 33.2487 76.0196 33.862C74.7316 34.4447 73.3669 34.736 71.9256 34.736C70.2083 34.736 68.7669 34.3987 67.6016 33.724C66.4363 33.0493 65.5776 32.2367 65.0256 31.286H64.6576V34H58.9996V1.064ZM70.6836 29.17C71.4809 29.17 72.2323 29.0167 72.9376 28.71C73.6736 28.4033 74.3176 27.974 74.8696 27.422C75.4216 26.87 75.8663 26.1953 76.2036 25.398C76.5409 24.6007 76.7096 23.7113 76.7096 22.73C76.7096 21.7487 76.5409 20.8593 76.2036 20.062C75.8663 19.2647 75.4216 18.59 74.8696 18.038C74.3176 17.486 73.6736 17.0567 72.9376 16.75C72.2323 16.4433 71.4809 16.29 70.6836 16.29C69.8863 16.29 69.1196 16.4433 68.3836 16.75C67.6783 17.026 67.0496 17.44 66.4976 17.992C65.9456 18.544 65.5009 19.2187 65.1636 20.016C64.8263 20.8133 64.6576 21.718 64.6576 22.73C64.6576 23.742 64.8263 24.6467 65.1636 25.444C65.5009 26.2413 65.9456 26.916 66.4976 27.468C67.0496 28.02 67.6783 28.4493 68.3836 28.756C69.1196 29.032 69.8863 29.17 70.6836 29.17ZM85.2124 11.46H90.8704V14.588H91.2384C91.5144 14.036 91.8824 13.53 92.3424 13.07C92.8024 12.61 93.3084 12.2113 93.8604 11.874C94.4431 11.5367 95.0564 11.276 95.7004 11.092C96.3751 10.908 97.0344 10.816 97.6784 10.816C98.4757 10.816 99.1504 10.8927 99.7024 11.046C100.285 11.1993 100.776 11.3987 101.174 11.644L99.5644 17.118C99.1964 16.934 98.7824 16.796 98.3224 16.704C97.8931 16.5813 97.3564 16.52 96.7124 16.52C95.8844 16.52 95.1331 16.6887 94.4584 17.026C93.7837 17.3327 93.2011 17.7773 92.7104 18.36C92.2504 18.9427 91.8824 19.6327 91.6064 20.43C91.3611 21.1967 91.2384 22.04 91.2384 22.96V34H85.2124V11.46ZM106.383 8.194C105.861 8.194 105.355 8.102 104.865 7.918C104.405 7.70333 103.991 7.42733 103.623 7.09C103.285 6.722 103.009 6.308 102.795 5.848C102.611 5.388 102.519 4.882 102.519 4.33C102.519 3.778 102.611 3.272 102.795 2.812C103.009 2.352 103.285 1.95333 103.623 1.616C103.991 1.248 104.405 0.971998 104.865 0.787997C105.355 0.573331 105.861 0.465999 106.383 0.465999C107.456 0.465999 108.376 0.849331 109.143 1.616C109.909 2.352 110.293 3.25667 110.293 4.33C110.293 5.40333 109.909 6.32333 109.143 7.09C108.376 7.826 107.456 8.194 106.383 8.194ZM103.393 34V11.46H109.419V34H103.393ZM130.575 31.286H130.207C129.655 32.2367 128.796 33.0493 127.631 33.724C126.465 34.3987 125.024 34.736 123.307 34.736C121.865 34.736 120.485 34.4447 119.167 33.862C117.879 33.2487 116.729 32.4207 115.717 31.378C114.735 30.3047 113.953 29.032 113.371 27.56C112.788 26.088 112.497 24.478 112.497 22.73C112.497 20.982 112.788 19.372 113.371 17.9C113.953 16.428 114.735 15.1707 115.717 14.128C116.729 13.0547 117.879 12.2267 119.167 11.644C120.485 11.0307 121.865 10.724 123.307 10.724C125.024 10.724 126.465 11.0613 127.631 11.736C128.796 12.4107 129.655 13.2233 130.207 14.174H130.575L130.207 10.954V1.064H136.233V34H130.575V31.286ZM124.549 29.17C125.346 29.17 126.097 29.032 126.803 28.756C127.539 28.4493 128.183 28.02 128.735 27.468C129.287 26.916 129.731 26.2413 130.069 25.444C130.406 24.6467 130.575 23.742 130.575 22.73C130.575 21.718 130.406 20.8133 130.069 20.016C129.731 19.2187 129.287 18.544 128.735 17.992C128.183 17.44 127.539 17.026 126.803 16.75C126.097 16.4433 125.346 16.29 124.549 16.29C123.751 16.29 122.985 16.4433 122.249 16.75C121.543 17.0567 120.915 17.486 120.363 18.038C119.811 18.59 119.366 19.2647 119.029 20.062C118.691 20.8593 118.523 21.7487 118.523 22.73C118.523 23.7113 118.691 24.6007 119.029 25.398C119.366 26.1953 119.811 26.87 120.363 27.422C120.915 27.974 121.543 28.4033 122.249 28.71C122.985 29.0167 123.751 29.17 124.549 29.17Z" fill="#4B4FA1"/>
</svg>
