<svg width="15" height="9" viewBox="0 0 15 9" fill="none" xmlns="http://www.w3.org/2000/svg">
<path d="M7.66668 8C10.326 8 12.6387 6.51733 13.8233 4.33333C13.2228 3.22407 12.3336 2.29772 11.2499 1.65228C10.1661 1.00684 8.92807 0.666295 7.66668 0.666667C6.40528 0.666295 5.16723 1.00684 4.08348 1.65228C2.99972 2.29772 2.11055 3.22407 1.51001 4.33333C2.11055 5.4426 2.99972 6.36894 4.08348 7.01439C5.16723 7.65983 6.40528 8.00037 7.66668 8ZM7.66668 4.28039e-07C9.10895 -0.000481429 10.5221 0.405877 11.7438 1.1724C12.9655 1.93892 13.9463 3.03452 14.5733 4.33333C13.9463 5.63215 12.9655 6.72775 11.7438 7.49427C10.5221 8.26079 9.10895 8.66715 7.66668 8.66667C6.2244 8.66715 4.81124 8.26079 3.58953 7.49427C2.36781 6.72775 1.38708 5.63215 0.76001 4.33333C1.38708 3.03452 2.36781 1.93892 3.58953 1.1724C4.81124 0.405877 6.2244 -0.000481429 7.66668 4.28039e-07ZM7.66668 1.33333C8.46233 1.33333 9.22539 1.6494 9.788 2.21201C10.3506 2.77462 10.6667 3.53768 10.6667 4.33333C10.6667 5.12898 10.3506 5.89204 9.788 6.45465C9.22539 7.01726 8.46233 7.33333 7.66668 7.33333C6.87103 7.33333 6.10797 7.01726 5.54536 6.45465C4.98275 5.89204 4.66668 5.12898 4.66668 4.33333C4.66668 3.53768 4.98275 2.77462 5.54536 2.21201C6.10797 1.6494 6.87103 1.33333 7.66668 1.33333ZM7.66668 2C7.04784 2 6.45435 2.24583 6.01676 2.68342C5.57918 3.121 5.33334 3.71449 5.33334 4.33333C5.33334 4.95217 5.57918 5.54566 6.01676 5.98325C6.45435 6.42083 7.04784 6.66667 7.66668 6.66667C8.28551 6.66667 8.87901 6.42083 9.31659 5.98325C9.75418 5.54566 10 4.95217 10 4.33333C10 3.71449 9.75418 3.121 9.31659 2.68342C8.87901 2.24583 8.28551 2 7.66668 2Z" fill="#C8C8C8"/>
</svg>
