<svg width="16" height="17" viewBox="0 0 16 17" fill="none" xmlns="http://www.w3.org/2000/svg">
<path d="M12.6665 7.60093H4.75984L7.17984 4.69427C7.293 4.55812 7.34744 4.3826 7.33118 4.20632C7.31493 4.03003 7.22932 3.86742 7.09317 3.75427C6.95703 3.64111 6.78151 3.58667 6.60522 3.60292C6.42894 3.61917 6.26633 3.70479 6.15317 3.84093L2.81984 7.84093C2.79741 7.87275 2.77736 7.90617 2.75984 7.94093C2.75984 7.97427 2.75984 7.99427 2.71317 8.0276C2.68295 8.10404 2.66713 8.18541 2.6665 8.2676C2.66713 8.34979 2.68295 8.43116 2.71317 8.5076C2.71317 8.54093 2.71317 8.56093 2.75984 8.59427C2.77736 8.62903 2.79741 8.66245 2.81984 8.69427L6.15317 12.6943C6.21585 12.7695 6.29435 12.83 6.38307 12.8715C6.47179 12.913 6.56856 12.9344 6.6665 12.9343C6.82227 12.9346 6.97323 12.8803 7.09317 12.7809C7.16068 12.725 7.21648 12.6562 7.25738 12.5787C7.29828 12.5011 7.32348 12.4162 7.33153 12.3289C7.33958 12.2416 7.33032 12.1535 7.30429 12.0698C7.27826 11.9861 7.23597 11.9083 7.17984 11.8409L4.75984 8.93427H12.6665C12.8433 8.93427 13.0129 8.86403 13.1379 8.739C13.2629 8.61398 13.3332 8.44441 13.3332 8.2676C13.3332 8.09079 13.2629 7.92122 13.1379 7.7962C13.0129 7.67117 12.8433 7.60093 12.6665 7.60093Z" fill="white"/>
</svg>
